<svg width="26" height="26" viewBox="0 0 26 26" fill="none" xmlns="http://www.w3.org/2000/svg">
<path d="M17.2998 12.7627L13 8.93742L8.70025 12.7627C8.54769 12.9153 8.34076 13.001 8.125 13.001C7.90924 13.001 7.70232 12.9153 7.54975 12.7627C7.39719 12.6102 7.31148 12.4032 7.31148 12.1875C7.31148 11.9717 7.39719 11.7648 7.54975 11.6122L12.4248 6.73724C12.5002 6.66157 12.5899 6.60154 12.6886 6.56058C12.7873 6.51962 12.8931 6.49854 13 6.49854C13.1069 6.49854 13.2127 6.51962 13.3114 6.56058C13.4101 6.60154 13.4998 6.66157 13.5753 6.73724L18.4503 11.6122C18.5258 11.6878 18.5857 11.7775 18.6266 11.8762C18.6675 11.9749 18.6885 12.0807 18.6885 12.1875C18.6885 12.2943 18.6675 12.4001 18.6266 12.4988C18.5857 12.5975 18.5258 12.6872 18.4503 12.7627C18.3747 12.8383 18.285 12.8982 18.1863 12.9391C18.0876 12.98 17.9818 13.001 17.875 13.001C17.7682 13.001 17.6624 12.98 17.5637 12.9391C17.465 12.8982 17.3753 12.8383 17.2998 12.7627Z" fill="#6C55E0"/>
</svg>
