<svg width="24" height="24" viewBox="0 0 24 24" fill="none" xmlns="http://www.w3.org/2000/svg">
<path d="M18.907 6.44006L11.252 14.0951C11.479 14.4201 11.672 14.7711 11.827 15.1431L13.737 19.7421L18.907 6.43906V6.44006ZM9.905 12.7481L17.561 5.09206L4.258 10.2621L8.857 12.1731C9.22615 12.3262 9.57755 12.519 9.905 12.7481ZM21.523 4.88606L15.496 20.3921C15.116 21.3721 14.019 21.8751 13.047 21.5161C12.8102 21.4286 12.5941 21.293 12.4122 21.118C12.2303 20.943 12.0866 20.7323 11.99 20.4991L10.08 15.9001C9.70836 15.0038 8.99623 14.2917 8.1 13.9201L3.5 12.0101C2.546 11.6131 2.11 10.5101 2.528 9.54406C2.63049 9.30802 2.77869 9.0946 2.96405 8.91611C3.14941 8.73761 3.36826 8.59757 3.608 8.50406L19.114 2.47506C19.4509 2.33928 19.8203 2.30558 20.1763 2.37817C20.5322 2.45075 20.8589 2.6264 21.1158 2.88326C21.3727 3.14012 21.5483 3.46685 21.6209 3.82278C21.6935 4.17871 21.6598 4.54813 21.524 4.88506L21.523 4.88606Z" fill="#6C55E0"/>
</svg>
