<svg width="20" height="20" viewBox="0 0 20 20" fill="none" xmlns="http://www.w3.org/2000/svg">
<path d="M17.316 6.24601C17.324 6.40801 17.327 6.57201 17.327 6.73401C17.327 11.724 13.53 17.476 6.58699 17.476C4.45399 17.476 2.47099 16.851 0.799988 15.779C1.78836 15.8985 2.7906 15.8221 3.74943 15.5541C4.70825 15.2861 5.60485 14.8317 6.38799 14.217C5.60041 14.2021 4.83716 13.9415 4.20497 13.4716C3.57277 13.0016 3.10323 12.3459 2.86199 11.596C3.42805 11.7019 4.01063 11.6797 4.56699 11.531C3.7126 11.3578 2.94439 10.8944 2.39253 10.2196C1.84068 9.5447 1.53913 8.69978 1.53899 7.82801V7.78101C2.06318 8.07261 2.64945 8.23477 3.24899 8.25401C2.44886 7.72059 1.88246 6.90193 1.6654 5.96511C1.44834 5.0283 1.59698 4.04396 2.08099 3.21301C3.02878 4.37947 4.21134 5.33351 5.55186 6.01316C6.89239 6.69281 8.36089 7.08287 9.86199 7.15801C9.79705 6.87563 9.7645 6.58676 9.76499 6.29701C9.76499 5.80145 9.86261 5.31074 10.0523 4.85291C10.242 4.39508 10.52 3.97911 10.8704 3.62874C11.2209 3.27837 11.6369 3.00047 12.0948 2.81092C12.5527 2.62137 13.0434 2.52388 13.539 2.52401C14.0554 2.52316 14.5666 2.62845 15.0407 2.83332C15.5147 3.0382 15.9417 3.3383 16.295 3.71501C17.1401 3.54771 17.9507 3.23796 18.692 2.79901C18.41 3.67321 17.8201 4.41523 17.032 4.88701C17.7802 4.7983 18.511 4.59808 19.2 4.29301C18.6938 5.05144 18.0557 5.71292 17.316 6.24601Z" fill="#6C55E0"/>
</svg>
