<svg width="20" height="20" viewBox="0 0 20 20" fill="none" xmlns="http://www.w3.org/2000/svg">
<path d="M19 17V3C19 1.9 18.097 1 16.995 1H3.005C1.855 1 1 1.853 1 3V17C1 18.148 1.855 19 3.005 19H16.995C17.5257 18.9992 18.0344 18.7884 18.4101 18.4136C18.7858 18.0389 18.9979 17.5306 19 17ZM15.184 11.607C15.184 11.607 16.316 12.724 16.595 13.242C16.603 13.253 16.606 13.263 16.609 13.267C16.722 13.457 16.751 13.607 16.694 13.717C16.6 13.9 16.28 13.992 16.171 14H14.172C14.032 14 13.742 13.964 13.39 13.721C13.12 13.533 12.853 13.222 12.593 12.919C12.205 12.469 11.869 12.079 11.531 12.079C11.4881 12.0789 11.4455 12.086 11.405 12.1C11.148 12.182 10.822 12.547 10.822 13.522C10.822 13.827 10.582 14.001 10.412 14.001H9.496C9.184 14.001 7.559 13.892 6.12 12.373C4.354 10.513 2.768 6.782 2.754 6.749C2.654 6.508 2.861 6.377 3.086 6.377H5.106C5.377 6.377 5.464 6.541 5.526 6.688C5.596 6.855 5.86 7.529 6.292 8.287C6.995 9.52 7.428 10.022 7.773 10.022C7.83751 10.0216 7.90085 10.0048 7.957 9.973C8.408 9.724 8.324 8.116 8.304 7.784C8.304 7.721 8.303 7.065 8.073 6.75C7.907 6.522 7.626 6.435 7.456 6.402C7.52532 6.30648 7.61654 6.22898 7.722 6.176C8.031 6.022 8.588 6 9.142 6H9.45C10.051 6.008 10.207 6.047 10.424 6.102C10.863 6.207 10.872 6.492 10.833 7.462C10.822 7.738 10.81 8.051 10.81 8.418C10.81 8.497 10.807 8.584 10.807 8.674C10.793 9.17 10.777 9.731 11.127 9.961C11.1723 9.98934 11.2246 10.0046 11.278 10.005C11.4 10.005 11.765 10.005 12.754 8.308C13.189 7.559 13.524 6.675 13.547 6.609C13.5819 6.53764 13.6325 6.47509 13.695 6.426C13.7462 6.39939 13.8033 6.38599 13.861 6.387H16.236C16.496 6.387 16.672 6.426 16.705 6.525C16.762 6.684 16.694 7.169 15.609 8.635L15.126 9.275C14.142 10.563 14.142 10.629 15.184 11.607Z" fill="#6C55E0"/>
</svg>
